# xmcd
#
# Track frame offsets:
#	150
#	11992
#	26346
#	43513
#	67499
#	79903
#	94358
#	108106
#	123440
#	143528
#	164878
#
# Disc length: 2459 seconds
#
# Revision: 0
# Processed by: cddbd v1.5.1PL0 Copyright (c) Steve Scherf et al.
# Submitted via: audiograbber 1.83.01
#
DISCID=9909990b
DTITLE=Joe Cocker - Luxury You Can Afford
DYEAR=1900
DGENRE=
TTITLE0=Fun Time
TTITLE1=Watching The River Flow
TTITLE2=Boogie Baby
TTITLE3=A Whiter Shade Of Pale
TTITLE4=I Can't Say No
TTITLE5=Southern Lady
TTITLE6=I Know (You Don't Want Me No More)
TTITLE7=What You Did To Me Last Night
TTITLE8=Lady Put The Light Out
TTITLE9=Wasted Years
TTITLE10=I Heard It Through The Grapevine
EXTD=
EXTT0=
EXTT1=
EXTT2=
EXTT3=
EXTT4=
EXTT5=
EXTT6=
EXTT7=
EXTT8=
EXTT9=
EXTT10=
PLAYORDER=
